<svg
   xmlns:dc="http://purl.org/dc/elements/1.1/"
   xmlns:cc="http://creativecommons.org/ns#"
   xmlns:rdf="http://www.w3.org/1999/02/22-rdf-syntax-ns#"
   xmlns:svg="http://www.w3.org/2000/svg"
   xmlns="http://www.w3.org/2000/svg"
   viewBox="0 0 45 45"
   height="45"
   width="45"
   xml:space="preserve"
   version="1.1"
   id="svg3159"><metadata
     id="metadata3165"><rdf:RDF><cc:Work
         rdf:about=""><dc:format>image/svg+xml</dc:format><dc:type
           rdf:resource="http://purl.org/dc/dcmitype/StillImage" /><dc:title></dc:title></cc:Work></rdf:RDF></metadata><defs
     id="defs3163" /><g
     transform="matrix(1.25,0,0,-1.25,0,45)"
     id="g3167"><g
       transform="scale(0.1,0.1)"
       id="g3169"><path
         id="path3175"
         style="fill:#0977b6;fill-opacity:1;fill-rule:nonzero;stroke:none"
         d="M 333.359,360 26.5508,360 C 11.9063,360 0,348.379 0,334.043 L 0,25.9766 C 0,11.6406 11.9063,0 26.5508,0 L 333.359,0 c 14.676,0 26.629,11.6406 26.629,25.9766 l 0,308.0664 c 0,14.336 -11.953,25.957 -26.629,25.957" /><path
         id="path3177"
         style="fill:#ffffff;fill-opacity:1;fill-rule:nonzero;stroke:none"
         d="m 80.0781,310.441 c 17.0821,0 30.9449,-13.875 30.9449,-30.964 0,-17.094 -13.8628,-30.965 -30.9449,-30.965 -17.1484,0 -30.9765,13.871 -30.9765,30.965 0,17.089 13.8281,30.964 30.9765,30.964 m -26.7383,-85.402 53.4452,0 0,-171.7968 -53.4452,0 0,171.7968" /><path
         id="path3179"
         style="fill:#ffffff;fill-opacity:1;fill-rule:nonzero;stroke:none"
         d="m 140.281,225.039 51.184,0 0,-23.484 0.73,0 c 7.121,13.504 24.543,27.746 50.52,27.746 54.062,0 64.055,-35.571 64.055,-81.84 l 0,-94.2188 -53.391,0 0,83.5428 c 0,19.926 -0.344,45.555 -27.742,45.555 -27.785,0 -32.024,-21.715 -32.024,-44.125 l 0,-84.9728 -53.332,0 0,171.7968" /></g></g></svg>